HIERARCHY
ROOT mixamorig:Hips
{
	OFFSET 0.000000 77.714516 0.000000
	CHANNELS 6 Xposition Yposition Zposition Xrotation Yrotation Zrotation
	JOINT mixamorig:Spine
	{
		OFFSET 0.000000 14.685699 -1.734700
		CHANNELS 3 Xrotation Yrotation Zrotation
		JOINT mixamorig:Spine1
		{
			OFFSET 0.000000 17.133286 -2.023825
			CHANNELS 3 Xrotation Yrotation Zrotation
			JOINT mixamorig:Spine2
			{
				OFFSET 0.000000 19.580956 -2.312950
				CHANNELS 3 Xrotation Yrotation Zrotation
				JOINT mixamorig:Neck
				{
					OFFSET 0.000000 22.028564 -2.602067
					CHANNELS 3 Xrotation Yrotation Zrotation
					JOINT mixamorig:Head
					{
						OFFSET 0.000000 7.772293 1.167700
						CHANNELS 3 Xrotation Yrotation Zrotation
						JOINT mixamorig:HeadTop_End
						{
							OFFSET 0.000000 26.518204 3.983900
							CHANNELS 3 Xrotation Yrotation Zrotation
							End Site
							{
								OFFSET 0.000000 26.815781 0.000000
							}
						}
					}
				}
				JOINT mixamorig:LeftShoulder
				{
					OFFSET 11.646600 18.513336 -2.583780
					CHANNELS 3 Xrotation Yrotation Zrotation
					JOINT mixamorig:LeftArm
					{
						OFFSET 23.544209 -6.614426 0.036475
						CHANNELS 3 Xrotation Yrotation Zrotation
						JOINT mixamorig:LeftForeArm
						{
							OFFSET 22.756695 0.000000 -0.000001
							CHANNELS 3 Xrotation Yrotation Zrotation
							JOINT mixamorig:LeftHand
							{
								OFFSET 32.238304 0.000000 -0.000001
								CHANNELS 3 Xrotation Yrotation Zrotation
								JOINT mixamorig:LeftHandThumb1
								{
									OFFSET 4.391930 -2.771759 4.066533
									CHANNELS 3 Xrotation Yrotation Zrotation
									JOINT mixamorig:LeftHandThumb2
									{
										OFFSET 4.087418 -2.359879 2.359871
										CHANNELS 3 Xrotation Yrotation Zrotation
										JOINT mixamorig:LeftHandThumb3
										{
											OFFSET 4.044945 -2.335342 2.335349
											CHANNELS 3 Xrotation Yrotation Zrotation
											JOINT mixamorig:LeftHandThumb4
											{
												OFFSET 3.242561 -1.872101 1.872095
												CHANNELS 3 Xrotation Yrotation Zrotation
												End Site
												{
													OFFSET 2.876892 -1.863678 2.402885
												}
											}
										}
									}
								}
								JOINT mixamorig:LeftHandIndex1
								{
									OFFSET 13.080666 -0.495590 3.860911
									CHANNELS 3 Xrotation Yrotation Zrotation
									JOINT mixamorig:LeftHandIndex2
									{
										OFFSET 4.467804 0.000000 0.000000
										CHANNELS 3 Xrotation Yrotation Zrotation
										JOINT mixamorig:LeftHandIndex3
										{
											OFFSET 4.434097 0.000000 0.000000
											CHANNELS 3 Xrotation Yrotation Zrotation
											JOINT mixamorig:LeftHandIndex4
											{
												OFFSET 3.589699 0.000000 0.000000
												CHANNELS 3 Xrotation Yrotation Zrotation
												End Site
												{
													OFFSET 3.589706 0.000000 0.000200
												}
											}
										}
									}
								}
								JOINT mixamorig:LeftHandMiddle1
								{
									OFFSET 12.178093 0.000000 0.000000
									CHANNELS 3 Xrotation Yrotation Zrotation
									JOINT mixamorig:LeftHandMiddle2
									{
										OFFSET 5.491508 0.000000 0.000000
										CHANNELS 3 Xrotation Yrotation Zrotation
										JOINT mixamorig:LeftHandMiddle3
										{
											OFFSET 5.202805 0.000000 0.000000
											CHANNELS 3 Xrotation Yrotation Zrotation
											JOINT mixamorig:LeftHandMiddle4
											{
												OFFSET 4.456505 0.000000 0.000000
												CHANNELS 3 Xrotation Yrotation Zrotation
												End Site
												{
													OFFSET 4.456505 -0.000046 0.006499
												}
											}
										}
									}
								}
								JOINT mixamorig:LeftHandRing1
								{
									OFFSET 11.850945 -0.053970 -3.835439
									CHANNELS 3 Xrotation Yrotation Zrotation
									JOINT mixamorig:LeftHandRing2
									{
										OFFSET 4.691414 0.000000 0.000000
										CHANNELS 3 Xrotation Yrotation Zrotation
										JOINT mixamorig:LeftHandRing3
										{
											OFFSET 4.518303 0.000000 0.000000
											CHANNELS 3 Xrotation Yrotation Zrotation
											JOINT mixamorig:LeftHandRing4
											{
												OFFSET 3.568130 0.000000 0.000000
												CHANNELS 3 Xrotation Yrotation Zrotation
												End Site
												{
													OFFSET 3.568100 -0.000168 0.014599
												}
											}
										}
									}
								}
								JOINT mixamorig:LeftHandPinky1
								{
									OFFSET 10.491814 -0.458572 -7.033705
									CHANNELS 3 Xrotation Yrotation Zrotation
									JOINT mixamorig:LeftHandPinky2
									{
										OFFSET 4.452301 0.000000 0.000000
										CHANNELS 3 Xrotation Yrotation Zrotation
										JOINT mixamorig:LeftHandPinky3
										{
											OFFSET 3.536598 0.000000 0.000000
											CHANNELS 3 Xrotation Yrotation Zrotation
											JOINT mixamorig:LeftHandPinky4
											{
												OFFSET 2.823502 0.000000 0.000000
												CHANNELS 3 Xrotation Yrotation Zrotation
												End Site
												{
													OFFSET 2.823502 0.000000 0.000600
												}
											}
										}
									}
								}
							}
						}
					}
				}
				JOINT mixamorig:RightShoulder
				{
					OFFSET -11.646600 18.513351 -2.620334
					CHANNELS 3 Xrotation Yrotation Zrotation
					JOINT mixamorig:RightArm
					{
						OFFSET -23.544205 -6.614441 -0.036501
						CHANNELS 3 Xrotation Yrotation Zrotation
						JOINT mixamorig:RightForeArm
						{
							OFFSET -22.759399 0.000000 0.000001
							CHANNELS 3 Xrotation Yrotation Zrotation
							JOINT mixamorig:RightHand
							{
								OFFSET -32.238106 0.000000 0.000001
								CHANNELS 3 Xrotation Yrotation Zrotation
								JOINT mixamorig:RightHandThumb1
								{
									OFFSET -4.492897 -2.767944 4.026622
									CHANNELS 3 Xrotation Yrotation Zrotation
									JOINT mixamorig:RightHandThumb2
									{
										OFFSET -4.113335 -2.374832 2.374833
										CHANNELS 3 Xrotation Yrotation Zrotation
										JOINT mixamorig:RightHandThumb3
										{
											OFFSET -4.066299 -2.347672 2.347678
											CHANNELS 3 Xrotation Yrotation Zrotation
											JOINT mixamorig:RightHandThumb4
											{
												OFFSET -3.138756 -1.812164 1.812160
												CHANNELS 3 Xrotation Yrotation Zrotation
												End Site
												{
													OFFSET -2.613274 -1.789185 2.527684
												}
											}
										}
									}
								}
								JOINT mixamorig:RightHandIndex1
								{
									OFFSET -12.930191 -0.141510 3.700550
									CHANNELS 3 Xrotation Yrotation Zrotation
									JOINT mixamorig:RightHandIndex2
									{
										OFFSET -4.764015 0.000000 0.000000
										CHANNELS 3 Xrotation Yrotation Zrotation
										JOINT mixamorig:RightHandIndex3
										{
											OFFSET -4.419807 0.000000 0.000000
											CHANNELS 3 Xrotation Yrotation Zrotation
											JOINT mixamorig:RightHandIndex4
											{
												OFFSET -3.701851 0.000000 0.000000
												CHANNELS 3 Xrotation Yrotation Zrotation
												End Site
												{
													OFFSET -3.701797 0.000153 -0.018699
												}
											}
										}
									}
								}
								JOINT mixamorig:RightHandMiddle1
								{
									OFFSET -12.168388 0.000000 0.000001
									CHANNELS 3 Xrotation Yrotation Zrotation
									JOINT mixamorig:RightHandMiddle2
									{
										OFFSET -5.385834 0.000000 0.000000
										CHANNELS 3 Xrotation Yrotation Zrotation
										JOINT mixamorig:RightHandMiddle3
										{
											OFFSET -5.321609 0.000000 0.000000
											CHANNELS 3 Xrotation Yrotation Zrotation
											JOINT mixamorig:RightHandMiddle4
											{
												OFFSET -4.501015 0.000000 0.000000
												CHANNELS 3 Xrotation Yrotation Zrotation
												End Site
												{
													OFFSET -4.500992 -0.000168 0.011299
												}
											}
										}
									}
								}
								JOINT mixamorig:RightHandRing1
								{
									OFFSET -11.815239 0.302551 -3.905540
									CHANNELS 3 Xrotation Yrotation Zrotation
									JOINT mixamorig:RightHandRing2
									{
										OFFSET -4.583313 0.000000 0.000000
										CHANNELS 3 Xrotation Yrotation Zrotation
										JOINT mixamorig:RightHandRing3
										{
											OFFSET -4.612907 0.000000 0.000000
											CHANNELS 3 Xrotation Yrotation Zrotation
											JOINT mixamorig:RightHandRing4
											{
												OFFSET -3.358940 0.000000 0.000000
												CHANNELS 3 Xrotation Yrotation Zrotation
												End Site
												{
													OFFSET -3.358910 -0.000198 0.016799
												}
											}
										}
									}
								}
								JOINT mixamorig:RightHandPinky1
								{
									OFFSET -10.511444 -0.263382 -6.996516
									CHANNELS 3 Xrotation Yrotation Zrotation
									JOINT mixamorig:RightHandPinky2
									{
										OFFSET -4.477509 0.000000 0.000000
										CHANNELS 3 Xrotation Yrotation Zrotation
										JOINT mixamorig:RightHandPinky3
										{
											OFFSET -3.497902 0.000000 0.000000
											CHANNELS 3 Xrotation Yrotation Zrotation
											JOINT mixamorig:RightHandPinky4
											{
												OFFSET -2.797302 0.000000 0.000000
												CHANNELS 3 Xrotation Yrotation Zrotation
												End Site
												{
													OFFSET -2.797302 -0.000031 0.002200
												}
											}
										}
									}
								}
							}
						}
					}
				}
			}
		}
	}
	JOINT mixamorig:LeftUpLeg
	{
		OFFSET 13.580900 -8.149200 -1.796100
		CHANNELS 3 Xrotation Yrotation Zrotation
		JOINT mixamorig:LeftLeg
		{
			OFFSET 1.779603 -35.946629 -2.676069
			CHANNELS 3 Xrotation Yrotation Zrotation
			JOINT mixamorig:LeftFoot
			{
				OFFSET -1.779600 -26.652353 -2.057156
				CHANNELS 3 Xrotation Yrotation Zrotation
				JOINT mixamorig:LeftToeBase
				{
					OFFSET -1.192457 -6.581663 13.403625
					CHANNELS 3 Xrotation Yrotation Zrotation
					JOINT mixamorig:LeftToe_End
					{
						OFFSET -0.351332 -0.163919 5.937958
						CHANNELS 3 Xrotation Yrotation Zrotation
						End Site
						{
							OFFSET -0.351332 -0.163919 5.937958
						}
					}
				}
			}
		}
	}
	JOINT mixamorig:RightUpLeg
	{
		OFFSET -13.580900 -8.149200 -2.255300
		CHANNELS 3 Xrotation Yrotation Zrotation
		JOINT mixamorig:RightLeg
		{
			OFFSET -1.779582 -35.946686 -2.316831
			CHANNELS 3 Xrotation Yrotation Zrotation
			JOINT mixamorig:RightFoot
			{
				OFFSET 1.779588 -26.652205 -2.090130
				CHANNELS 3 Xrotation Yrotation Zrotation
				JOINT mixamorig:RightToeBase
				{
					OFFSET 1.192391 -6.582412 13.372187
					CHANNELS 3 Xrotation Yrotation Zrotation
					JOINT mixamorig:RightToe_End
					{
						OFFSET 0.351304 -0.164246 5.913598
						CHANNELS 3 Xrotation Yrotation Zrotation
						End Site
						{
							OFFSET 0.351304 -0.164246 5.913598
						}
					}
				}
			}
		}
	}
}
MOTION
Frames: 4
Frame Time: 0.016667
3.692799 75.889511 0.902501 -3.124776 -12.422200 -2.306881 7.323555 2.058892 -0.386443 -0.262372 0.356600 -1.259217 -0.258279 0.339848 -1.264933 5.660721 -0.649635 2.689073 17.952452 0.695561 -0.820523 0.000000 -0.000001 0.000000 0.467952 -0.077990 -6.707035 33.315119 -45.571787 -45.925389 0.000005 -24.917367 0.000013 10.626728 7.854570 3.451032 -1.540031 3.690178 6.142352 5.192796 23.964313 1.872113 -0.579462 1.575004 2.538718 0.000000 -0.000002 -0.000000 0.117577 1.269555 -10.581799 0.286904 1.970601 -16.565429 0.015126 0.457044 -3.790052 -0.000000 0.000000 -0.000001 0.103755 1.193221 -9.938700 0.067140 0.961101 -7.990576 0.042051 0.761561 -6.323909 0.000001 0.000001 -0.000001 0.036595 0.710413 -5.897653 0.286909 1.970628 -16.565434 0.049599 0.826652 -6.866937 -0.000001 0.000001 -0.000001 1.388643 5.821795 -15.720889 0.286416 -2.086217 -17.055242 0.019063 0.513121 -4.256026 -0.000000 -0.000000 0.000001 0.855330 12.433912 6.814245 29.345303 19.884221 31.613725 0.000036 57.244758 -0.000026 23.477577 -6.839889 4.288987 -1.849252 -3.581797 -6.586134 13.383324 -24.540955 -0.005020 7.016495 -15.802397 -3.591707 -0.000002 0.000003 -0.000002 0.010314 -0.379532 3.115918 0.024665 -0.586327 4.816989 0.002109 -0.171626 1.408385 -0.000001 -0.000001 0.000002 0.010314 -0.379530 3.115922 0.024668 -0.586330 4.816981 0.002109 -0.171624 1.408392 -0.000000 -0.000000 -0.000001 0.010315 -0.379532 3.115923 0.119496 -1.286175 10.616290 0.002120 -0.171616 1.408395 -0.000000 -0.000001 -0.000000 0.010317 -0.379531 3.115928 0.065907 -0.957064 7.878605 0.002111 -0.171609 1.408400 -0.000000 0.000001 -0.000003 -5.101969 0.850204 7.847570 26.939390 8.341093 0.347265 -13.796788 23.682421 -9.796643 -0.000066 -0.000001 0.000001 -0.000000 0.000000 -0.000000 -12.786532 -10.695983 -9.433758 25.269157 -7.026679 0.455571 -7.684609 7.276496 8.260292 -2.774530 0.000008 -0.000001 0.000000 0.000001 -0.000000 
3.562677 75.779861 0.862999 -3.318167 -11.998306 -2.379677 7.703434 2.056517 -0.126671 -0.353831 0.355240 -1.224261 -0.349185 0.338409 -1.230654 5.649080 -0.646947 2.729935 17.791553 0.759834 -0.818254 -0.000001 -0.000001 -0.000000 0.444560 0.049425 -5.917855 30.735568 -47.123504 -47.173357 0.000002 -25.804788 0.000003 12.021155 8.352808 3.708310 -1.540036 3.690180 6.142355 5.192801 23.964315 1.872118 -0.579462 1.575000 2.538720 -0.000001 0.000000 -0.000001 0.115170 1.256577 -10.472394 0.279194 1.944555 -16.339955 0.014472 0.447073 -3.707349 -0.000001 -0.000000 0.000000 0.101381 1.179568 -9.823773 0.064413 0.941461 -7.826179 0.040726 0.749514 -6.223284 0.000000 -0.000000 0.000001 0.035662 0.701281 -5.821386 0.279211 1.944546 -16.339950 0.048110 0.814145 -6.762470 -0.000001 0.000000 -0.000002 1.368145 5.802383 -15.518326 0.278488 -2.112224 -16.830325 0.018148 0.500559 -4.151576 -0.000001 0.000000 0.000002 0.893493 10.789045 5.536369 24.863383 16.874390 32.681236 0.000009 61.187778 -0.000027 24.749611 -7.756657 -1.637359 -2.820978 -3.536234 -7.153066 13.192517 -24.208031 -0.014798 6.844731 -15.466707 -3.562055 0.000000 0.000000 -0.000000 0.009285 -0.359950 2.955006 0.018963 -0.514382 4.224732 0.001607 -0.149734 1.228676 -0.000000 -0.000001 -0.000003 0.009284 -0.359956 2.955007 0.018972 -0.514388 4.224724 0.001602 -0.149714 1.228662 0.000000 -0.000000 0.000004 0.009284 -0.359951 2.955007 0.103489 -1.197574 9.877079 0.001600 -0.149706 1.228644 -0.000000 -0.000000 0.000003 0.009284 -0.359949 2.955012 0.056871 -0.889300 7.317710 0.001594 -0.149718 1.228681 -0.000000 -0.000000 -0.000000 -5.260226 0.612205 8.608989 27.716201 7.858928 -0.854209 -14.402122 23.390820 -9.204262 -0.000011 0.000003 0.000002 -0.000000 0.000002 -0.000000 -14.044015 -11.946042 -10.261938 28.562125 -6.613288 0.904082 -8.250352 7.897118 7.934068 -5.137982 -0.000002 0.000001 -0.000000 -0.000000 -0.000000 
3.423148 75.676445 0.817507 -3.535988 -11.595400 -2.429559 8.237988 2.017081 -0.031508 -0.406469 0.352020 -1.216535 -0.401511 0.334124 -1.223501 5.630132 -0.640304 2.787573 17.671870 0.881554 -0.893240 0.000002 0.000000 -0.000000 0.424539 0.230696 -5.250038 29.373772 -48.349178 -47.728095 -0.000000 -26.471981 0.000001 12.912619 8.558125 4.244507 -1.540019 3.690169 6.142349 5.192796 23.964313 1.872113 -0.579461 1.575003 2.538720 -0.000000 0.000001 0.000001 0.111921 1.238834 -10.322775 0.268838 1.908852 -16.031642 0.013598 0.433459 -3.594248 -0.000002 0.000000 -0.000001 0.098166 1.160876 -9.666613 0.060772 0.914560 -7.601437 0.038961 0.733007 -6.085703 0.000001 0.000000 -0.000001 0.034391 0.688747 -5.717086 0.268829 1.908872 -16.031661 0.046094 0.797027 -6.619605 -0.000000 -0.000000 0.000001 1.340193 5.775727 -15.241335 0.267824 -2.147830 -16.522765 0.016907 0.483359 -4.008734 -0.000000 -0.000000 0.000002 0.903988 9.149688 4.197699 20.612987 14.442073 33.278154 0.000024 64.877918 -0.000003 25.824732 -8.667406 -6.980026 -3.839060 -3.468686 -7.743668 12.998938 -23.869561 -0.024479 6.670022 -15.125544 -3.531900 0.000004 0.000002 0.000001 0.008392 -0.342348 2.810373 0.014494 -0.449658 3.692345 0.001219 -0.130041 1.067147 -0.000000 0.000000 0.000000 0.008396 -0.342352 2.810367 0.014497 -0.449660 3.692343 0.001206 -0.130038 1.067143 0.000000 -0.000002 0.000002 0.008395 -0.342355 2.810368 0.090064 -1.117748 9.212604 0.001202 -0.130038 1.067133 0.000000 0.000001 -0.000004 0.008398 -0.342353 2.810372 0.049308 -0.828330 6.813469 0.001204 -0.130048 1.067147 0.000000 0.000000 0.000002 -5.323091 0.427972 9.338661 28.313876 7.409171 -2.012803 -14.895171 23.051938 -8.639921 -0.000092 0.000008 -0.000001 -0.000000 0.000004 -0.000001 -15.006574 -12.594107 -10.810794 31.156755 -5.939027 1.171000 -8.650812 8.377601 7.581433 -6.978632 -0.000003 0.000003 -0.000000 -0.000000 -0.000000 
3.239531 75.569160 0.752823 -3.797882 -11.219437 -2.442239 8.831343 1.949434 -0.044229 -0.435635 0.346755 -1.227065 -0.430523 0.327230 -1.234484 5.601469 -0.627824 2.911644 17.700983 1.175537 -1.240059 -0.000003 -0.000000 0.000000 0.404278 0.426118 -4.650577 28.735320 -49.351600 -47.902757 -0.000001 -26.943414 -0.000004 13.467976 8.539263 4.938934 -1.540036 3.690175 6.142364 5.192797 23.964311 1.872117 -0.579460 1.575005 2.538720 -0.000001 0.000001 -0.000002 0.108361 1.219143 -10.156957 0.257551 1.869226 -15.689971 0.012672 0.418366 -3.468889 -0.000000 -0.000000 0.000000 0.094679 1.140161 -9.492424 0.056835 0.884766 -7.352256 0.037027 0.714708 -5.933171 0.000000 0.000000 -0.000000 0.033018 0.674870 -5.601506 0.257561 1.869242 -15.689974 0.043915 0.778032 -6.461287 0.000001 -0.000000 0.000001 1.309388 5.746006 -14.934386 0.256208 -2.187348 -16.181900 0.015614 0.464306 -3.850444 -0.000001 -0.000000 -0.000000 0.872529 7.575351 2.803077 16.628177 12.456102 33.568320 0.000051 68.353487 -0.000045 26.837336 -9.581437 -11.642231 -4.886450 -3.378005 -8.347266 12.803338 -23.526882 -0.034030 6.493095 -14.780251 -3.501313 0.000003 0.000003 -0.000002 0.007652 -0.326966 2.683928 0.011077 -0.393043 3.226924 0.000914 -0.112823 0.925911 0.000000 -0.000001 0.000000 0.007652 -0.326971 2.683921 0.011082 -0.393034 3.226915 0.000911 -0.112821 0.925935 0.000001 0.000000 0.000000 0.007654 -0.326975 2.683927 0.079089 -1.047841 8.631745 0.000909 -0.112833 0.925892 -0.000001 0.000000 -0.000001 0.007655 -0.326970 2.683930 0.043153 -0.774987 6.372704 0.000902 -0.112846 0.925909 0.000001 -0.000001 -0.000001 -5.324908 0.346282 10.027116 28.799739 6.989240 -3.032456 -15.264918 22.602457 -8.199696 -0.000113 -0.000006 -0.000001 -0.000000 0.000001 -0.000000 -15.701707 -12.776813 -11.281001 32.967308 -4.297671 1.411770 -8.897915 8.560536 7.073224 -8.007360 -0.000002 -0.000001 -0.000000 0.000001 -0.000000 
